<?xml version="1.0" encoding="UTF-8" standalone="no"?>
<svg width="451px" height="371px" viewBox="0 0 451 371" version="1.1" xmlns="http://www.w3.org/2000/svg" xmlns:xlink="http://www.w3.org/1999/xlink">
    <!-- Generator: Sketch 3.6.1 (26313) - http://www.bohemiancoding.com/sketch -->
    <title>var_imp_plot</title>
    <desc>Created with Sketch.</desc>
    <defs>
        <path id="path-1" d="M0.441406,0 L256.761719,0 L256.761719,2 L0.441406,2 L0.441406,0 Z"></path>
        <path id="path-3" d="M0.441406,0 L256.761719,0 L256.761719,2 L0.441406,2 L0.441406,0 Z"></path>
        <path id="path-5" d="M0.441406,0 L256.761719,0 L256.761719,2 L0.441406,2 L0.441406,0 Z"></path>
        <path id="path-7" d="M0.441406,0 L256.761719,0 L256.761719,2 L0.441406,2 L0.441406,0 Z"></path>
        <path id="path-9" d="M0.441406,0 L256.761719,0 L256.761719,2 L0.441406,2 L0.441406,0 Z"></path>
        <path id="path-11" d="M0.441406,0 L256.761719,0 L256.761719,1 L0.441406,1 L0.441406,0 Z"></path>
        <path id="path-13" d="M0.441406,0 L256.761719,0 L256.761719,2 L0.441406,2 L0.441406,0 Z"></path>
        <path id="path-15" d="M0.441406,0 L256.761719,0 L256.761719,2 L0.441406,2 L0.441406,0 Z"></path>
        <linearGradient x1="0%" y1="50%" x2="99.4399713%" y2="50%" id="linearGradient-17">
            <stop stop-color="#EEEEEE" offset="0%"></stop>
            <stop stop-color="#00E624" offset="100%"></stop>
        </linearGradient>
    </defs>
    <g id="var_importance" stroke="none" stroke-width="1" fill="none" fill-rule="evenodd">
        <g id="var_imp_plot">
            <rect id="Rectangle-path" fill="#CDCDCD" opacity="0.421058769" x="0" y="0" width="451" height="371"></rect>
            <g id="surface1598" transform="translate(17.000000, 13.000000)">
                <g id="y-axis-labels" transform="translate(0.000000, 27.000000)" font-family="Helvetica" fill="#000000" font-weight="normal">
                    <text id="Avg.-weekly-spend" font-size="14">
                        <tspan x="0" y="90">Avg. weekly spend</tspan>
                    </text>
                    <text id="Avg.-weekly-visits" font-size="14">
                        <tspan x="0" y="242">Avg. weekly visits</tspan>
                    </text>
                    <text id="Price-promotion-(%)" font-size="14">
                        <tspan x="0" y="52">Price promotion (%)</tspan>
                    </text>
                    <text id="Avg.-weekly-packs" font-size="14">
                        <tspan x="0" y="14">Avg. weekly packs</tspan>
                    </text>
                    <text id="Day-of-week" font-size="14">
                        <tspan x="0" y="204">Day of week</tspan>
                    </text>
                    <text id="Brand-Loyalty" font-size="14">
                        <tspan x="0" y="128">Brand Loyalty</tspan>
                    </text>
                    <text id="Shops-visited" font-size="14">
                        <tspan x="0" y="166">Shops visited</tspan>
                    </text>
                    <text id="Mean-decrease-in-acc" font-size="18">
                        <tspan x="182" y="317">Mean decrease in accuracy</tspan>
                    </text>
                </g>
                <g id="in_graph_lines" transform="translate(163.000000, 36.000000)">
                    <g id="last-line" transform="translate(0.000000, 260.000000)">
                        <mask id="mask-2" fill="white">
                            <use xlink:href="#path-1"></use>
                        </mask>
                        <g id="Shape"></g>
                        <path d="M0.441406,1.257812 L255.761719,1.257812" id="Shape" stroke="#BEBEBE" stroke-width="0.75" stroke-dasharray="0.75,2.25" mask="url(#mask-2)"></path>
                    </g>
                    <g id="Clipped" transform="translate(0.000000, 223.000000)">
                        <mask id="mask-4" fill="white">
                            <use xlink:href="#path-3"></use>
                        </mask>
                        <g id="Shape"></g>
                        <path d="M0.441406,1.105469 L255.761719,1.105469" id="Shape" stroke="#BEBEBE" stroke-width="0.75" stroke-dasharray="0.75,2.25" mask="url(#mask-4)"></path>
                    </g>
                    <g id="Clipped" transform="translate(0.000000, 186.000000)">
                        <mask id="mask-6" fill="white">
                            <use xlink:href="#path-5"></use>
                        </mask>
                        <g id="Shape"></g>
                        <path d="M0.441406,0.953125 L255.761719,0.953125" id="Shape" stroke="#BEBEBE" stroke-width="0.75" stroke-dasharray="0.75,2.25" mask="url(#mask-6)"></path>
                    </g>
                    <g id="Clipped" transform="translate(0.000000, 149.000000)">
                        <mask id="mask-8" fill="white">
                            <use xlink:href="#path-7"></use>
                        </mask>
                        <g id="Shape"></g>
                        <path d="M0.441406,0.800781 L255.761719,0.800781" id="Shape" stroke="#BEBEBE" stroke-width="0.75" stroke-dasharray="0.75,2.25" mask="url(#mask-8)"></path>
                    </g>
                    <g id="Clipped" transform="translate(0.000000, 112.000000)">
                        <mask id="mask-10" fill="white">
                            <use xlink:href="#path-9"></use>
                        </mask>
                        <g id="Shape"></g>
                        <path d="M0.441406,0.648438 L255.761719,0.648438" id="Shape" stroke="#BEBEBE" stroke-width="0.75" stroke-dasharray="0.75,2.25" mask="url(#mask-10)"></path>
                    </g>
                    <g id="Clipped" transform="translate(0.000000, 75.000000)">
                        <mask id="mask-12" fill="white">
                            <use xlink:href="#path-11"></use>
                        </mask>
                        <g id="Shape"></g>
                        <path d="M0.441406,0.496094 L255.761719,0.496094" id="Shape" stroke="#BEBEBE" stroke-width="0.75" stroke-dasharray="0.75,2.25" mask="url(#mask-12)"></path>
                    </g>
                    <g id="Clipped" transform="translate(0.000000, 37.000000)">
                        <mask id="mask-14" fill="white">
                            <use xlink:href="#path-13"></use>
                        </mask>
                        <g id="Shape"></g>
                        <path d="M0.441406,1.34375 L255.761719,1.34375" id="Shape" stroke="#BEBEBE" stroke-width="0.75" stroke-dasharray="0.75,2.25" mask="url(#mask-14)"></path>
                    </g>
                    <g id="1line">
                        <mask id="mask-16" fill="white">
                            <use xlink:href="#path-15"></use>
                        </mask>
                        <g id="Shape"></g>
                        <path d="M0.441406,1.191406 L255.761719,1.191406" id="Shape" stroke="#BEBEBE" stroke-width="0.75" stroke-dasharray="0.75,2.25" mask="url(#mask-16)"></path>
                    </g>
                </g>
                <rect id="Rectangle-2" stroke="#000000" fill="url(#linearGradient-17)" opacity="0.511252332" x="163" y="0" width="256" height="297"></rect>
                <g id="datapoints" transform="translate(181.000000, 34.000000)" stroke="#000000" stroke-width="0.75" fill="#000000">
                    <path d="M8.24464607,225.55881 C8.24464607,230.889251 0.246094,230.889251 0.246094,225.55881 C0.246094,220.222584 8.24464607,220.222584 8.24464607,225.55881" id="Shape"></path>
                    <path d="M8.24464607,188.55881 C8.24464607,193.889251 0.246094,193.889251 0.246094,188.55881 C0.246094,183.222584 8.24464607,183.222584 8.24464607,188.55881" id="Shape"></path>
                    <path d="M12.7173035,150.406468 C12.7173035,155.736906 4.71875,155.736906 4.71875,150.406468 C4.71875,145.07024 12.7173035,145.07024 12.7173035,150.406468" id="Shape"></path>
                    <path d="M66.9730908,115.101779 C66.9730908,120.43222 58.96875,120.43222 58.96875,115.101779 C58.96875,109.765553 66.9730908,109.765553 66.9730908,115.101779" id="Shape"></path>
                    <path d="M123.488281,78.7949223 C123.488281,84.1282549 115.488281,84.1282549 115.488281,78.7949223 C115.488281,73.4615882 123.488281,73.4615882 123.488281,78.7949223" id="Shape"></path>
                    <path d="M128.263748,41.6425785 C128.263748,46.9759118 120.269531,46.9759118 120.269531,41.6425785 C120.269531,36.3092452 128.263748,36.3092452 128.263748,41.6425785" id="Shape"></path>
                    <path d="M233.604021,4.49099321 C233.604021,9.82722093 225.605469,9.82722093 225.605469,4.49099321 C225.605469,-0.839445736 233.604021,-0.839445736 233.604021,4.49099321" id="Shape"></path>
                </g>
            </g>
        </g>
    </g>
</svg>